g Mesh

v -0.0025014132261276245 -0.03051563911139965 0.054186128079891205
v -0.04729709029197693 -0.014651341363787651 -0.041522301733493805
v 0.056567996740341187 -0.002580968663096428 0.021462343633174896
v 0.02110666036605835 0.04612182080745697 0.010164223611354828
v 0.035159677267074585 0.010779472067952156 0.04881861060857773
v -0.01667274534702301 0.04905690252780914 0.01891108602285385
v -0.046581871807575226 -0.022590605542063713 0.049787722527980804
v 0.03515063226222992 0.013129206374287605 0.04813947528600693
v -0.0510421022772789 -0.02509644441306591 -0.014926768839359283
v -0.00025603175163269043 0.06446436047554016 -0.02336183935403824
v -0.052094168961048126 -0.011252669617533684 0.02384199947118759
v 0.03871992230415344 0.03298121690750122 0.008778654038906097
v -0.02911575883626938 -0.022709427401423454 0.06880374997854233
v -0.050394557416439056 -0.032180577516555786 0.011058352887630463
v -0.047818295657634735 0.016144441440701485 -0.008119262754917145
v 0.06884254515171051 -0.021385548636317253 -0.004934348165988922
v 0.004039168357849121 0.014055000618100166 -0.046584464609622955
v 0.018060952425003052 -0.01203383319079876 -0.04224429279565811
v -0.04700689762830734 -0.015869198366999626 0.05203183740377426
v 0.03845001757144928 0.01365816779434681 0.04366406053304672
v -0.049137987196445465 -0.0034677963703870773 0.04437699168920517
v -0.04482491314411163 -0.02152797393500805 0.056692443788051605
v 0.06305195391178131 0.0020165760070085526 0.013577364385128021
v -0.0315450057387352 -0.020360169932246208 0.06823798269033432
v -0.021441474556922913 -0.024291662499308586 0.06577631086111069
v -0.0315360501408577 -0.022687820717692375 0.06891068071126938
v -0.0018751919269561768 0.0030667204409837723 -0.047602154314517975
v -0.009910017251968384 0.005972625687718391 -0.047914303839206696
v -0.01754756271839142 0.03056766279041767 -0.04430565983057022
v -0.0418991819024086 0.02142140455543995 -0.0423535481095314
v 0.009312286972999573 0.06379169225692749 -0.030718006193637848
v -0.008321598172187805 -0.011093227192759514 -0.04638872295618057
v 0.012438058853149414 -0.05021443963050842 0.02896549552679062
v 0.061018526554107666 -0.018752066418528557 0.0061323270201683044
v -0.04516705125570297 -0.012971637770533562 0.057360075414180756
v -0.01755724847316742 0.02791181392967701 -0.045039452612400055
v 0.07200577855110168 0.002121405676007271 -0.007726229727268219
v 0.04358747601509094 -0.0037619750946760178 0.03595735877752304
v 0.02714480459690094 -0.05045878887176514 0.017928026616573334
v 0.0521848201751709 0.003506990149617195 0.02824302762746811
v -0.04733007401227951 -0.009678510949015617 0.05338277667760849
v -0.05079322308301926 -0.0004059355705976486 0.03419073671102524
v -0.01710955798625946 0.03962889313697815 0.032902322709560394
v -0.050344690680503845 -0.02614942006766796 -0.02299109846353531
v -0.03603120893239975 -0.021824417635798454 0.06574513763189316
v -0.042554549872875214 -0.02763533405959606 0.06043650954961777
v 0.0007067769765853882 0.03980429470539093 0.03208490461111069
v -0.04912879317998886 -0.0058553796261549 0.04506703466176987
v 0.06136178970336914 -0.011117218062281609 -0.02082369476556778
v 0.05170741677284241 0.009232314303517342 0.028693579137325287
v -0.04461079090833664 0.016191186383366585 -0.04071412235498428
v 0.008473411202430725 0.03760726749897003 0.03051527589559555
v 0.0033730417490005493 0.05180226266384125 0.009487591683864594
v -0.011126294732093811 -0.024052349850535393 0.061056576669216156
v 0.005505800247192383 -0.036828890442848206 -0.04091528803110123
v -0.04277455061674118 -0.023603109642863274 -0.037726737558841705
v 0.02150142192840576 -0.08212223649024963 -0.01641622930765152
v -0.048193514347076416 0.013608353212475777 0.012964092195034027
v 0.009303256869316101 0.005859972909092903 -0.047760285437107086
v 0.033444225788116455 -0.01519271545112133 0.04077949374914169
v 0.032190173864364624 -0.02288937382400036 0.03681185096502304
v -0.05331063270568848 -0.004373757168650627 -0.027065731585025787
v -0.038998112082481384 0.0313926637172699 0.025228403508663177
v -0.028668567538261414 -0.03863982856273651 -0.02929488569498062
v -0.0418761670589447 -0.037871330976486206 0.032104216516017914
v -0.02412496507167816 0.04050964117050171 0.029965482652187347
v -0.012076854705810547 0.01991199143230915 -0.04719672352075577
v 0.05283576250076294 0.011849673464894295 0.022673748433589935
v -0.003999188542366028 0.01963287778198719 -0.04615847021341324
f 37 49 31
f 31 49 37
f 31 49 59
f 59 49 31
f 65 14 57
f 57 14 65
f 16 49 37
f 37 49 16
f 57 49 16
f 16 49 57
f 33 26 57
f 57 26 33
f 37 31 12
f 12 31 37
f 62 14 11
f 11 14 62
f 57 14 44
f 44 14 57
f 62 2 44
f 44 2 62
f 55 49 57
f 57 49 55
f 55 32 59
f 59 32 55
f 2 32 55
f 55 32 2
f 57 26 46
f 46 26 57
f 46 65 57
f 57 65 46
f 14 65 46
f 46 65 14
f 57 16 39
f 39 16 57
f 39 33 57
f 57 33 39
f 37 12 68
f 68 12 37
f 62 58 15
f 15 58 62
f 24 35 26
f 26 35 24
f 43 24 8
f 8 24 43
f 63 15 58
f 58 15 63
f 56 44 2
f 2 44 56
f 56 55 57
f 57 55 56
f 2 55 56
f 56 55 2
f 9 14 62
f 62 14 9
f 62 44 9
f 9 44 62
f 9 44 14
f 14 44 9
f 59 49 18
f 18 49 59
f 18 55 59
f 59 55 18
f 49 55 18
f 18 55 49
f 28 32 2
f 2 32 28
f 60 1 61
f 61 1 60
f 61 1 33
f 33 1 61
f 33 39 61
f 61 39 33
f 61 39 16
f 16 39 61
f 13 24 26
f 26 24 13
f 8 24 13
f 13 24 8
f 26 33 13
f 13 33 26
f 8 13 5
f 5 13 8
f 4 12 31
f 31 12 4
f 20 68 12
f 12 68 20
f 12 4 20
f 20 4 12
f 20 4 8
f 8 4 20
f 34 3 60
f 60 3 34
f 16 3 34
f 34 3 16
f 60 61 34
f 34 61 60
f 34 61 16
f 16 61 34
f 21 63 42
f 42 63 21
f 42 63 58
f 58 63 42
f 62 11 42
f 42 11 62
f 42 58 62
f 62 58 42
f 45 46 26
f 26 46 45
f 26 35 45
f 45 35 26
f 45 35 46
f 46 35 45
f 47 43 8
f 8 43 47
f 47 4 53
f 53 4 47
f 47 53 6
f 6 53 47
f 6 43 47
f 47 43 6
f 41 63 21
f 21 63 41
f 66 43 6
f 6 43 66
f 6 63 66
f 66 63 6
f 63 41 66
f 66 41 63
f 66 41 35
f 35 41 66
f 35 24 66
f 66 24 35
f 24 43 66
f 66 43 24
f 10 63 6
f 6 63 10
f 6 53 10
f 10 53 6
f 10 4 31
f 31 4 10
f 53 4 10
f 10 4 53
f 57 44 64
f 64 44 57
f 64 56 57
f 57 56 64
f 44 56 64
f 64 56 44
f 17 31 59
f 59 31 17
f 17 69 31
f 31 69 17
f 31 69 67
f 67 69 31
f 59 28 67
f 67 28 59
f 67 17 59
f 59 17 67
f 69 17 67
f 67 17 69
f 59 32 27
f 27 32 59
f 27 28 59
f 59 28 27
f 32 28 27
f 27 28 32
f 7 11 14
f 14 11 7
f 7 19 11
f 11 19 7
f 14 46 7
f 7 46 14
f 54 1 60
f 60 1 54
f 60 5 54
f 54 5 60
f 60 3 38
f 38 3 60
f 38 5 60
f 60 5 38
f 68 20 50
f 50 20 68
f 8 5 50
f 50 5 8
f 50 20 8
f 8 20 50
f 8 4 52
f 52 4 8
f 52 47 8
f 8 47 52
f 4 47 52
f 52 47 4
f 11 19 48
f 48 19 11
f 19 41 48
f 48 41 19
f 48 41 21
f 21 41 48
f 21 42 48
f 48 42 21
f 48 42 11
f 11 42 48
f 22 41 19
f 19 41 22
f 22 7 46
f 46 7 22
f 19 7 22
f 22 7 19
f 46 35 22
f 22 35 46
f 35 41 22
f 22 41 35
f 15 63 30
f 30 63 15
f 63 10 30
f 30 10 63
f 30 10 31
f 31 10 30
f 36 67 30
f 30 67 36
f 30 28 2
f 2 28 30
f 30 67 28
f 28 67 30
f 25 5 13
f 13 5 25
f 25 54 5
f 5 54 25
f 1 54 25
f 25 54 1
f 33 1 25
f 25 1 33
f 25 13 33
f 33 13 25
f 40 50 5
f 5 50 40
f 40 38 3
f 3 38 40
f 5 38 40
f 40 38 5
f 23 3 16
f 16 3 23
f 23 40 3
f 3 40 23
f 50 40 23
f 23 40 50
f 23 16 37
f 37 16 23
f 37 68 23
f 23 68 37
f 68 50 23
f 23 50 68
f 62 15 51
f 51 15 62
f 15 30 51
f 51 30 15
f 51 2 62
f 62 2 51
f 51 30 2
f 2 30 51
f 29 30 31
f 31 30 29
f 36 30 29
f 29 30 36
f 31 67 29
f 29 67 31
f 29 67 36
f 36 67 29
f 31 49 37
f 37 49 31
f 59 49 31
f 31 49 59
f 57 14 65
f 65 14 57
f 37 49 16
f 16 49 37
f 16 49 57
f 57 49 16
f 57 26 33
f 33 26 57
f 12 31 37
f 37 31 12
f 11 14 62
f 62 14 11
f 44 14 57
f 57 14 44
f 44 2 62
f 62 2 44
f 57 49 55
f 55 49 57
f 59 32 55
f 55 32 59
f 55 32 2
f 2 32 55
f 46 26 57
f 57 26 46
f 57 65 46
f 46 65 57
f 46 65 14
f 14 65 46
f 39 16 57
f 57 16 39
f 57 33 39
f 39 33 57
f 68 12 37
f 37 12 68
f 15 58 62
f 62 58 15
f 26 35 24
f 24 35 26
f 8 24 43
f 43 24 8
f 58 15 63
f 63 15 58
f 2 44 56
f 56 44 2
f 57 55 56
f 56 55 57
f 56 55 2
f 2 55 56
f 62 14 9
f 9 14 62
f 9 44 62
f 62 44 9
f 14 44 9
f 9 44 14
f 18 49 59
f 59 49 18
f 59 55 18
f 18 55 59
f 18 55 49
f 49 55 18
f 2 32 28
f 28 32 2
f 61 1 60
f 60 1 61
f 33 1 61
f 61 1 33
f 61 39 33
f 33 39 61
f 16 39 61
f 61 39 16
f 26 24 13
f 13 24 26
f 13 24 8
f 8 24 13
f 13 33 26
f 26 33 13
f 5 13 8
f 8 13 5
f 31 12 4
f 4 12 31
f 12 68 20
f 20 68 12
f 20 4 12
f 12 4 20
f 8 4 20
f 20 4 8
f 60 3 34
f 34 3 60
f 34 3 16
f 16 3 34
f 34 61 60
f 60 61 34
f 16 61 34
f 34 61 16
f 42 63 21
f 21 63 42
f 58 63 42
f 42 63 58
f 42 11 62
f 62 11 42
f 62 58 42
f 42 58 62
f 26 46 45
f 45 46 26
f 45 35 26
f 26 35 45
f 46 35 45
f 45 35 46
f 8 43 47
f 47 43 8
f 53 4 47
f 47 4 53
f 6 53 47
f 47 53 6
f 47 43 6
f 6 43 47
f 21 63 41
f 41 63 21
f 6 43 66
f 66 43 6
f 66 63 6
f 6 63 66
f 66 41 63
f 63 41 66
f 35 41 66
f 66 41 35
f 66 24 35
f 35 24 66
f 66 43 24
f 24 43 66
f 6 63 10
f 10 63 6
f 10 53 6
f 6 53 10
f 31 4 10
f 10 4 31
f 10 4 53
f 53 4 10
f 64 44 57
f 57 44 64
f 57 56 64
f 64 56 57
f 64 56 44
f 44 56 64
f 59 31 17
f 17 31 59
f 31 69 17
f 17 69 31
f 67 69 31
f 31 69 67
f 67 28 59
f 59 28 67
f 59 17 67
f 67 17 59
f 67 17 69
f 69 17 67
f 27 32 59
f 59 32 27
f 59 28 27
f 27 28 59
f 27 28 32
f 32 28 27
f 14 11 7
f 7 11 14
f 11 19 7
f 7 19 11
f 7 46 14
f 14 46 7
f 60 1 54
f 54 1 60
f 54 5 60
f 60 5 54
f 38 3 60
f 60 3 38
f 60 5 38
f 38 5 60
f 50 20 68
f 68 20 50
f 50 5 8
f 8 5 50
f 8 20 50
f 50 20 8
f 52 4 8
f 8 4 52
f 8 47 52
f 52 47 8
f 52 47 4
f 4 47 52
f 48 19 11
f 11 19 48
f 48 41 19
f 19 41 48
f 21 41 48
f 48 41 21
f 48 42 21
f 21 42 48
f 11 42 48
f 48 42 11
f 19 41 22
f 22 41 19
f 46 7 22
f 22 7 46
f 22 7 19
f 19 7 22
f 22 35 46
f 46 35 22
f 22 41 35
f 35 41 22
f 30 63 15
f 15 63 30
f 30 10 63
f 63 10 30
f 31 10 30
f 30 10 31
f 30 67 36
f 36 67 30
f 2 28 30
f 30 28 2
f 28 67 30
f 30 67 28
f 13 5 25
f 25 5 13
f 5 54 25
f 25 54 5
f 25 54 1
f 1 54 25
f 25 1 33
f 33 1 25
f 33 13 25
f 25 13 33
f 5 50 40
f 40 50 5
f 3 38 40
f 40 38 3
f 40 38 5
f 5 38 40
f 16 3 23
f 23 3 16
f 3 40 23
f 23 40 3
f 23 40 50
f 50 40 23
f 37 16 23
f 23 16 37
f 23 68 37
f 37 68 23
f 23 50 68
f 68 50 23
f 51 15 62
f 62 15 51
f 51 30 15
f 15 30 51
f 62 2 51
f 51 2 62
f 2 30 51
f 51 30 2
f 31 30 29
f 29 30 31
f 29 30 36
f 36 30 29
f 29 67 31
f 31 67 29
f 36 67 29
f 29 67 36