g Mesh

v 0.0007215738296508789 -0.052489496767520905 -0.04073268175125122
v -0.06714941561222076 0.014930933713912964 -0.03213834762573242
v 0.023144513368606567 -0.042858414351940155 -0.03896540403366089
v 0.009160339832305908 -0.050199925899505615 -0.040360212326049805
v -0.04893001914024353 -0.014561638236045837 0.019606828689575195
v 0.01896682381629944 0.004790410399436951 -0.04772704839706421
v -0.01760166883468628 0.007112711668014526 -0.0490146279335022
v -0.03995475172996521 0.005443304777145386 0.0318450927734375
v -0.006318569183349609 0.009219393134117126 -0.04899895191192627
v 0.03907307982444763 0.032432734966278076 0.025782406330108643
v 0.02791169285774231 -0.032457225024700165 0.07664871215820312
v 0.015237301588058472 -0.05225089192390442 0.02493375539779663
v -0.06436212360858917 -0.0034381598234176636 -0.022710323333740234
v -0.06689329445362091 0.009238079190254211 -0.031226396560668945
v -0.018755614757537842 0.032395705580711365 0.0465732216835022
v 0.005817711353302002 0.06347505748271942 0.012629210948944092
v -0.006431221961975098 -0.009993880987167358 -0.04915297031402588
v -0.05067150294780731 -0.018604755401611328 0.013823866844177246
v 0.01278349757194519 -0.05226033180952072 0.024224579334259033
v -0.0380215048789978 0.01595507562160492 0.029337286949157715
v -0.011620044708251953 -0.04686736315488815 -0.04664874076843262
v 0.03194400668144226 -0.04972843825817108 0.0306892991065979
v -0.014087677001953125 -0.05053636431694031 -0.010078191757202148
v 0.0608273446559906 -0.04243681579828262 -0.011316061019897461
v 0.023343324661254883 -0.02768031507730484 0.07510411739349365
v 0.014192745089530945 -0.0473809540271759 -0.04276096820831299
v -0.03996950387954712 0.002928107976913452 0.03182494640350342
v -0.009826213121414185 0.04062111675739288 0.044602811336517334
v 0.013373449444770813 0.010658487677574158 -0.04820030927658081
v -0.03178703784942627 -0.01730942726135254 -0.048653244972229004
v -0.005101129412651062 0.07193110883235931 -0.008268296718597412
v -0.011002153158187866 -0.05052369832992554 -0.03168070316314697
v -0.018005892634391785 -0.0488327294588089 0.016958296298980713
v -0.048499420285224915 0.0278690904378891 0.002259194850921631
v -0.049515500664711 -0.016756609082221985 0.017672419548034668
v 0.000398099422454834 -0.053074464201927185 -0.033504605293273926
v -0.009690910577774048 0.05162355303764343 0.027454912662506104
v 0.04161420464515686 -0.04954086244106293 0.002216339111328125
v -0.0020503103733062744 -0.049235276877880096 -0.047938644886016846
v 0.008689641952514648 -0.05345951020717621 -0.025878608226776123
v 0.03068658709526062 -0.006296560168266296 0.06163930892944336
v 0.018316656351089478 0.06353531777858734 0.004778742790222168
v 0.059630244970321655 0.029734626412391663 0.004760921001434326
v 0.01241883635520935 0.06563815474510193 0.0050588250160217285
v 0.06932458281517029 0.029719457030296326 -0.007023215293884277
v -0.04940482974052429 0.03843846917152405 -0.0202140212059021
v -0.027518585324287415 -0.04386337846517563 0.02067166566848755
v 0.005374640226364136 -0.05169524997472763 0.04393810033798218
v -0.004491657018661499 0.06319785118103027 0.010702729225158691
v 0.08166363835334778 0.021417558193206787 -0.017654895782470703
v 0.07083159685134888 0.023990049958229065 -0.004235386848449707
v 0.006087571382522583 -0.053469523787498474 -0.026630640029907227
v -0.04010222852230072 -0.019708603620529175 0.031643450260162354
v 0.08163926005363464 0.01868245005607605 -0.017534077167510986
v -0.04131808876991272 0.011590123176574707 0.027093470096588135
v -0.05837959051132202 0.028620630502700806 -0.021979212760925293
v -0.04352276027202606 -0.03028373420238495 0.02003645896911621
v 0.02535983920097351 0.0348343551158905 0.03525054454803467
v 0.012609034776687622 -0.053194254636764526 -0.02788364887237549
v -0.05107501149177551 0.010227590799331665 0.0121382474899292
v -0.04891499876976013 -0.011999860405921936 0.019627392292022705
v -0.011995315551757812 0.06586967408657074 -0.003309488296508789
v 0.01782509684562683 -0.05108796805143356 0.041258156299591064
v 0.0133095383644104 -0.0002406686544418335 -0.04828768968582153
v -0.018733829259872437 0.03483566641807556 0.046465396881103516
v -0.0649070143699646 0.00237824022769928 -0.024578750133514404
v 0.06463631987571716 -0.03515639156103134 -0.002218782901763916
v -1.5050172805786133e-05 0.06297755241394043 0.013049721717834473
v 0.01062685251235962 -0.05158180743455887 0.04440963268280029
v -0.014866873621940613 -0.01785944402217865 -0.04897332191467285
v -0.012185424566268921 0.040612027049064636 0.043920934200286865
v -0.012459367513656616 0.07223108410835266 -0.016607582569122314
v 0.026286274194717407 -0.04139471799135208 0.07034450769424438
v -0.016387253999710083 0.03484469652175903 0.047143638134002686
v -0.03429219126701355 -0.03907307982444763 0.024664223194122314
v -0.014081940054893494 -0.05083249509334564 0.01170492172241211
v 0.055439114570617676 0.019468486309051514 0.017575383186340332
v 0.020926952362060547 0.06875868141651154 -0.0061730146408081055
v 0.02607843279838562 -0.03714259713888168 0.07529568672180176
v -0.040968239307403564 -0.024208828806877136 0.028726816177368164
v 0.03637029230594635 0.005421936511993408 -0.04215395450592041
v 0.003915160894393921 -0.05339449644088745 -0.02830439805984497
v -0.019277065992355347 -0.04470476508140564 -0.04271215200424194
v 0.037159889936447144 -0.005027338862419128 0.05511575937271118
v 0.010762438178062439 0.013392850756645203 -0.04745262861251831
v 0.0029870569705963135 -0.051704443991184235 0.043247997760772705
v -0.02747461199760437 -0.036644138395786285 -0.0444178581237793
v -0.06492295861244202 -0.00033989548683166504 -0.024600505828857422
v 0.05002337694168091 0.02965831756591797 0.016574621200561523
v 0.027890294790267944 -0.03485455363988876 0.076754629611969
v 0.02558472752571106 -0.0348634347319603 0.0760883092880249
v 0.032163381576538086 0.03315103054046631 0.03312873840332031
v -0.06633272767066956 0.006096571683883667 -0.02933657169342041
v -0.039420098066329956 -0.033828213810920715 0.025093913078308105
v -0.021880000829696655 -0.041983045637607574 -0.043592214584350586
v 0.0271548330783844 -0.045091502368450165 0.05930626392364502
v 0.014756351709365845 0.035852789878845215 0.03943073749542236
v -0.05162982642650604 0.013255923986434937 0.010245680809020996
v 0.03635454177856445 0.002737075090408325 -0.042175471782684326
v 0.023961782455444336 -0.041403673589229584 0.06967264413833618
v -0.040087491273880005 -0.017193421721458435 0.03166365623474121
v 0.021969765424728394 -0.03704223781824112 0.07306075096130371
v -0.03181144595146179 -0.020044535398483276 -0.04853242635726929
v -5.888938903808594e-05 0.07191270589828491 -0.009661436080932617
v 0.026722222566604614 -0.02260109782218933 0.07375979423522949
v 0.0006085038185119629 -0.04922503978013992 -0.04717022180557251
v 0.04041227698326111 -0.05054525285959244 -0.017882823944091797
v 0.0338042676448822 -0.00042566657066345215 0.05601423978805542
v 0.025648921728134155 -0.0276714488863945 0.07577049732208252
v 0.023321956396102905 -0.03007764369249344 0.0752100944519043
v -0.03479371964931488 -0.03992660343647003 0.0133819580078125
v -0.02448287606239319 -0.039261311292648315 -0.04447221755981445
v 0.004848897457122803 -0.029871657490730286 -0.048310816287994385
v 0.02735796570777893 0.06420302391052246 -0.007226169109344482
v -0.041830822825431824 0.0268794447183609 0.01596987247467041
v 0.028289586305618286 -0.01977384090423584 0.07095468044281006
v 0.03984382748603821 -0.044502049684524536 0.03168749809265137
v -0.037751078605651855 -0.0322934091091156 0.030872642993927002
v -0.002475172281265259 0.06296809017658234 0.012338697910308838
v 0.023279160261154175 -0.034872300922870636 0.07542192935943604
v 0.03423571586608887 -0.050468750298023224 0.010546207427978516
v 0.010157018899917603 -0.045259974896907806 0.05544048547744751
v -0.0016038864850997925 0.07746914029121399 -0.028893649578094482
v -0.011238068342208862 0.03507581353187561 0.047579944133758545
f 46 123 2
f 2 123 46
f 54 67 24
f 24 67 54
f 90 67 54
f 54 67 90
f 68 28 16
f 16 28 68
f 50 123 114
f 114 123 50
f 123 78 114
f 114 78 123
f 28 124 105
f 105 124 28
f 13 87 111
f 111 87 13
f 52 86 82
f 82 86 52
f 123 46 72
f 72 46 123
f 86 102 122
f 122 102 86
f 24 67 117
f 117 67 24
f 73 67 90
f 90 67 73
f 73 117 67
f 67 117 73
f 96 117 73
f 73 117 96
f 42 16 92
f 92 16 42
f 97 16 28
f 28 16 97
f 28 105 97
f 97 105 28
f 50 84 11
f 11 84 50
f 11 54 50
f 50 54 11
f 90 54 11
f 11 54 90
f 108 89 92
f 92 89 108
f 84 77 108
f 108 77 84
f 77 89 108
f 108 89 77
f 2 123 7
f 7 123 2
f 7 70 30
f 30 70 7
f 7 30 2
f 2 30 7
f 83 111 87
f 87 111 83
f 76 82 86
f 86 82 76
f 57 18 13
f 13 18 57
f 13 111 57
f 57 111 13
f 79 73 90
f 90 73 79
f 69 63 96
f 96 63 69
f 96 73 69
f 69 73 96
f 51 89 77
f 77 89 51
f 51 84 50
f 50 84 51
f 51 77 84
f 84 77 51
f 44 42 78
f 78 42 44
f 16 42 44
f 44 42 16
f 78 42 10
f 10 42 78
f 10 114 78
f 78 114 10
f 92 89 10
f 10 89 92
f 10 42 92
f 92 42 10
f 92 16 58
f 58 16 92
f 16 97 58
f 58 97 16
f 58 108 92
f 92 108 58
f 116 11 84
f 84 11 116
f 105 11 116
f 116 11 105
f 84 108 116
f 116 108 84
f 116 108 105
f 105 108 116
f 41 97 105
f 105 97 41
f 105 108 41
f 41 108 105
f 41 58 97
f 97 58 41
f 108 58 41
f 41 58 108
f 2 14 88
f 88 14 2
f 93 87 13
f 13 87 93
f 93 14 87
f 87 14 93
f 13 88 93
f 93 88 13
f 93 88 14
f 14 88 93
f 87 14 103
f 103 14 87
f 2 30 103
f 103 30 2
f 103 14 2
f 2 14 103
f 70 7 17
f 17 7 70
f 9 7 123
f 123 7 9
f 9 17 7
f 7 17 9
f 65 72 46
f 46 72 65
f 2 88 66
f 66 88 2
f 66 88 13
f 13 88 66
f 13 61 66
f 66 61 13
f 95 87 112
f 112 87 95
f 95 83 87
f 87 83 95
f 23 83 32
f 32 83 23
f 111 83 23
f 23 83 111
f 47 86 75
f 75 86 47
f 75 111 47
f 47 111 75
f 111 23 47
f 47 23 111
f 47 23 76
f 76 23 47
f 94 111 75
f 75 111 94
f 94 57 111
f 111 57 94
f 104 78 123
f 123 78 104
f 119 28 68
f 68 28 119
f 72 49 31
f 31 49 72
f 123 72 31
f 31 72 123
f 49 119 31
f 31 119 49
f 31 104 123
f 123 104 31
f 31 119 68
f 68 119 31
f 78 104 31
f 31 104 78
f 68 16 31
f 31 16 68
f 31 44 78
f 78 44 31
f 16 44 31
f 31 44 16
f 37 119 49
f 49 119 37
f 100 79 102
f 102 79 100
f 73 79 100
f 100 79 73
f 100 102 86
f 86 102 100
f 48 69 73
f 73 69 48
f 48 100 86
f 86 100 48
f 73 100 48
f 48 100 73
f 63 69 12
f 12 69 63
f 69 48 12
f 12 48 69
f 12 48 86
f 86 48 12
f 52 40 12
f 12 40 52
f 38 107 24
f 24 107 38
f 96 63 22
f 22 63 96
f 22 117 96
f 96 117 22
f 24 117 22
f 22 117 24
f 22 38 24
f 24 38 22
f 89 51 45
f 45 51 89
f 50 114 45
f 45 114 50
f 45 51 50
f 50 51 45
f 102 79 120
f 120 79 102
f 85 123 29
f 29 123 85
f 29 9 85
f 85 9 29
f 85 9 123
f 123 9 85
f 74 124 28
f 28 124 74
f 101 61 5
f 5 61 101
f 5 61 13
f 13 61 5
f 34 65 46
f 46 65 34
f 36 23 32
f 32 23 36
f 82 76 36
f 36 76 82
f 76 23 36
f 36 23 76
f 24 107 26
f 26 107 24
f 33 76 86
f 86 76 33
f 86 47 33
f 33 47 86
f 33 47 76
f 76 47 33
f 57 94 118
f 118 94 57
f 102 120 118
f 118 120 102
f 18 57 118
f 118 57 18
f 118 94 75
f 75 94 118
f 118 122 102
f 102 122 118
f 75 86 118
f 118 86 75
f 86 122 118
f 118 122 86
f 62 49 72
f 72 49 62
f 62 37 49
f 49 37 62
f 72 65 62
f 62 65 72
f 65 37 62
f 62 37 65
f 71 37 65
f 65 37 71
f 71 74 28
f 28 74 71
f 65 74 71
f 71 74 65
f 28 119 71
f 71 119 28
f 119 37 71
f 71 37 119
f 19 86 52
f 52 86 19
f 52 12 19
f 19 12 52
f 19 12 86
f 86 12 19
f 107 38 121
f 121 38 107
f 38 22 121
f 121 22 38
f 121 12 107
f 107 12 121
f 63 12 121
f 121 12 63
f 121 22 63
f 63 22 121
f 43 45 114
f 114 45 43
f 89 45 43
f 43 45 89
f 114 10 43
f 43 10 114
f 43 10 89
f 89 10 43
f 65 8 15
f 15 8 65
f 15 8 120
f 120 8 15
f 91 79 90
f 90 79 91
f 91 120 79
f 79 120 91
f 90 11 91
f 91 11 90
f 64 9 29
f 29 9 64
f 17 9 64
f 64 9 17
f 109 11 105
f 105 11 109
f 109 105 124
f 124 105 109
f 124 74 109
f 109 74 124
f 98 8 55
f 55 8 98
f 55 8 65
f 65 8 55
f 60 8 98
f 98 8 60
f 61 8 60
f 60 8 61
f 60 66 61
f 61 66 60
f 60 98 2
f 2 98 60
f 2 66 60
f 60 66 2
f 27 61 101
f 101 61 27
f 27 8 61
f 61 8 27
f 101 120 27
f 27 120 101
f 120 8 27
f 27 8 120
f 98 65 115
f 115 65 98
f 115 34 98
f 98 34 115
f 65 34 115
f 115 34 65
f 2 98 56
f 56 98 2
f 98 34 56
f 56 34 98
f 56 46 2
f 2 46 56
f 56 34 46
f 46 34 56
f 107 12 59
f 59 12 107
f 59 12 40
f 40 12 59
f 32 83 21
f 21 83 32
f 83 95 21
f 21 95 83
f 21 95 112
f 112 95 21
f 112 87 21
f 21 87 112
f 87 103 21
f 21 103 87
f 3 54 24
f 24 54 3
f 24 26 3
f 3 26 24
f 53 120 101
f 101 120 53
f 53 118 120
f 120 118 53
f 101 5 53
f 53 5 101
f 18 118 35
f 35 118 18
f 35 118 5
f 5 118 35
f 13 18 35
f 35 18 13
f 35 5 13
f 13 5 35
f 29 123 81
f 81 123 29
f 81 123 50
f 50 123 81
f 110 91 11
f 11 91 110
f 11 109 110
f 110 109 11
f 65 15 110
f 110 15 65
f 20 65 98
f 98 65 20
f 98 55 20
f 20 55 98
f 20 55 65
f 65 55 20
f 82 36 1
f 1 36 82
f 107 59 1
f 1 59 107
f 1 36 32
f 32 36 1
f 32 21 1
f 1 21 32
f 1 59 40
f 40 59 1
f 52 82 1
f 1 82 52
f 1 40 52
f 52 40 1
f 17 64 113
f 113 64 17
f 5 118 80
f 80 118 5
f 80 53 5
f 5 53 80
f 118 53 80
f 80 53 118
f 6 64 29
f 29 64 6
f 29 81 6
f 6 81 29
f 6 113 64
f 64 113 6
f 65 110 25
f 25 110 65
f 25 110 109
f 109 110 25
f 25 74 65
f 65 74 25
f 25 109 74
f 74 109 25
f 39 1 21
f 21 1 39
f 39 21 103
f 103 21 39
f 30 70 39
f 39 70 30
f 39 103 30
f 30 103 39
f 70 17 39
f 39 17 70
f 17 113 39
f 39 113 17
f 4 26 107
f 107 26 4
f 107 1 4
f 4 1 107
f 99 6 81
f 81 6 99
f 113 6 99
f 99 6 113
f 99 3 26
f 26 3 99
f 54 3 99
f 99 3 54
f 50 54 99
f 99 54 50
f 99 81 50
f 50 81 99
f 1 39 106
f 106 39 1
f 26 4 106
f 106 4 26
f 106 4 1
f 1 4 106
f 106 39 113
f 113 39 106
f 106 99 26
f 26 99 106
f 113 99 106
f 106 99 113
f 120 91 110
f 110 91 120
f 110 15 120
f 120 15 110
f 2 123 46
f 46 123 2
f 24 67 54
f 54 67 24
f 54 67 90
f 90 67 54
f 16 28 68
f 68 28 16
f 114 123 50
f 50 123 114
f 114 78 123
f 123 78 114
f 105 124 28
f 28 124 105
f 111 87 13
f 13 87 111
f 82 86 52
f 52 86 82
f 72 46 123
f 123 46 72
f 122 102 86
f 86 102 122
f 117 67 24
f 24 67 117
f 90 67 73
f 73 67 90
f 67 117 73
f 73 117 67
f 73 117 96
f 96 117 73
f 92 16 42
f 42 16 92
f 28 16 97
f 97 16 28
f 97 105 28
f 28 105 97
f 11 84 50
f 50 84 11
f 50 54 11
f 11 54 50
f 11 54 90
f 90 54 11
f 92 89 108
f 108 89 92
f 108 77 84
f 84 77 108
f 108 89 77
f 77 89 108
f 7 123 2
f 2 123 7
f 30 70 7
f 7 70 30
f 2 30 7
f 7 30 2
f 87 111 83
f 83 111 87
f 86 82 76
f 76 82 86
f 13 18 57
f 57 18 13
f 57 111 13
f 13 111 57
f 90 73 79
f 79 73 90
f 96 63 69
f 69 63 96
f 69 73 96
f 96 73 69
f 77 89 51
f 51 89 77
f 50 84 51
f 51 84 50
f 84 77 51
f 51 77 84
f 78 42 44
f 44 42 78
f 44 42 16
f 16 42 44
f 10 42 78
f 78 42 10
f 78 114 10
f 10 114 78
f 10 89 92
f 92 89 10
f 92 42 10
f 10 42 92
f 58 16 92
f 92 16 58
f 58 97 16
f 16 97 58
f 92 108 58
f 58 108 92
f 84 11 116
f 116 11 84
f 116 11 105
f 105 11 116
f 116 108 84
f 84 108 116
f 105 108 116
f 116 108 105
f 105 97 41
f 41 97 105
f 41 108 105
f 105 108 41
f 97 58 41
f 41 58 97
f 41 58 108
f 108 58 41
f 88 14 2
f 2 14 88
f 13 87 93
f 93 87 13
f 87 14 93
f 93 14 87
f 93 88 13
f 13 88 93
f 14 88 93
f 93 88 14
f 103 14 87
f 87 14 103
f 103 30 2
f 2 30 103
f 2 14 103
f 103 14 2
f 17 7 70
f 70 7 17
f 123 7 9
f 9 7 123
f 7 17 9
f 9 17 7
f 46 72 65
f 65 72 46
f 66 88 2
f 2 88 66
f 13 88 66
f 66 88 13
f 66 61 13
f 13 61 66
f 112 87 95
f 95 87 112
f 87 83 95
f 95 83 87
f 32 83 23
f 23 83 32
f 23 83 111
f 111 83 23
f 75 86 47
f 47 86 75
f 47 111 75
f 75 111 47
f 47 23 111
f 111 23 47
f 76 23 47
f 47 23 76
f 75 111 94
f 94 111 75
f 111 57 94
f 94 57 111
f 123 78 104
f 104 78 123
f 68 28 119
f 119 28 68
f 31 49 72
f 72 49 31
f 31 72 123
f 123 72 31
f 31 119 49
f 49 119 31
f 123 104 31
f 31 104 123
f 68 119 31
f 31 119 68
f 31 104 78
f 78 104 31
f 31 16 68
f 68 16 31
f 78 44 31
f 31 44 78
f 31 44 16
f 16 44 31
f 49 119 37
f 37 119 49
f 102 79 100
f 100 79 102
f 100 79 73
f 73 79 100
f 86 102 100
f 100 102 86
f 73 69 48
f 48 69 73
f 86 100 48
f 48 100 86
f 48 100 73
f 73 100 48
f 12 69 63
f 63 69 12
f 12 48 69
f 69 48 12
f 86 48 12
f 12 48 86
f 12 40 52
f 52 40 12
f 24 107 38
f 38 107 24
f 22 63 96
f 96 63 22
f 96 117 22
f 22 117 96
f 22 117 24
f 24 117 22
f 24 38 22
f 22 38 24
f 45 51 89
f 89 51 45
f 45 114 50
f 50 114 45
f 50 51 45
f 45 51 50
f 120 79 102
f 102 79 120
f 29 123 85
f 85 123 29
f 85 9 29
f 29 9 85
f 123 9 85
f 85 9 123
f 28 124 74
f 74 124 28
f 5 61 101
f 101 61 5
f 13 61 5
f 5 61 13
f 46 65 34
f 34 65 46
f 32 23 36
f 36 23 32
f 36 76 82
f 82 76 36
f 36 23 76
f 76 23 36
f 26 107 24
f 24 107 26
f 86 76 33
f 33 76 86
f 33 47 86
f 86 47 33
f 76 47 33
f 33 47 76
f 118 94 57
f 57 94 118
f 118 120 102
f 102 120 118
f 118 57 18
f 18 57 118
f 75 94 118
f 118 94 75
f 102 122 118
f 118 122 102
f 118 86 75
f 75 86 118
f 118 122 86
f 86 122 118
f 72 49 62
f 62 49 72
f 49 37 62
f 62 37 49
f 62 65 72
f 72 65 62
f 62 37 65
f 65 37 62
f 65 37 71
f 71 37 65
f 28 74 71
f 71 74 28
f 71 74 65
f 65 74 71
f 71 119 28
f 28 119 71
f 71 37 119
f 119 37 71
f 52 86 19
f 19 86 52
f 19 12 52
f 52 12 19
f 86 12 19
f 19 12 86
f 121 38 107
f 107 38 121
f 121 22 38
f 38 22 121
f 107 12 121
f 121 12 107
f 121 12 63
f 63 12 121
f 63 22 121
f 121 22 63
f 114 45 43
f 43 45 114
f 43 45 89
f 89 45 43
f 43 10 114
f 114 10 43
f 89 10 43
f 43 10 89
f 15 8 65
f 65 8 15
f 120 8 15
f 15 8 120
f 90 79 91
f 91 79 90
f 79 120 91
f 91 120 79
f 91 11 90
f 90 11 91
f 29 9 64
f 64 9 29
f 64 9 17
f 17 9 64
f 105 11 109
f 109 11 105
f 124 105 109
f 109 105 124
f 109 74 124
f 124 74 109
f 55 8 98
f 98 8 55
f 65 8 55
f 55 8 65
f 98 8 60
f 60 8 98
f 60 8 61
f 61 8 60
f 61 66 60
f 60 66 61
f 2 98 60
f 60 98 2
f 60 66 2
f 2 66 60
f 101 61 27
f 27 61 101
f 61 8 27
f 27 8 61
f 27 120 101
f 101 120 27
f 27 8 120
f 120 8 27
f 115 65 98
f 98 65 115
f 98 34 115
f 115 34 98
f 115 34 65
f 65 34 115
f 56 98 2
f 2 98 56
f 56 34 98
f 98 34 56
f 2 46 56
f 56 46 2
f 46 34 56
f 56 34 46
f 59 12 107
f 107 12 59
f 40 12 59
f 59 12 40
f 21 83 32
f 32 83 21
f 21 95 83
f 83 95 21
f 112 95 21
f 21 95 112
f 21 87 112
f 112 87 21
f 21 103 87
f 87 103 21
f 24 54 3
f 3 54 24
f 3 26 24
f 24 26 3
f 101 120 53
f 53 120 101
f 120 118 53
f 53 118 120
f 53 5 101
f 101 5 53
f 35 118 18
f 18 118 35
f 5 118 35
f 35 118 5
f 35 18 13
f 13 18 35
f 13 5 35
f 35 5 13
f 81 123 29
f 29 123 81
f 50 123 81
f 81 123 50
f 11 91 110
f 110 91 11
f 110 109 11
f 11 109 110
f 110 15 65
f 65 15 110
f 98 65 20
f 20 65 98
f 20 55 98
f 98 55 20
f 65 55 20
f 20 55 65
f 1 36 82
f 82 36 1
f 1 59 107
f 107 59 1
f 32 36 1
f 1 36 32
f 1 21 32
f 32 21 1
f 40 59 1
f 1 59 40
f 1 82 52
f 52 82 1
f 52 40 1
f 1 40 52
f 113 64 17
f 17 64 113
f 80 118 5
f 5 118 80
f 5 53 80
f 80 53 5
f 80 53 118
f 118 53 80
f 29 64 6
f 6 64 29
f 6 81 29
f 29 81 6
f 64 113 6
f 6 113 64
f 25 110 65
f 65 110 25
f 109 110 25
f 25 110 109
f 65 74 25
f 25 74 65
f 74 109 25
f 25 109 74
f 21 1 39
f 39 1 21
f 103 21 39
f 39 21 103
f 39 70 30
f 30 70 39
f 30 103 39
f 39 103 30
f 39 17 70
f 70 17 39
f 39 113 17
f 17 113 39
f 107 26 4
f 4 26 107
f 4 1 107
f 107 1 4
f 81 6 99
f 99 6 81
f 99 6 113
f 113 6 99
f 26 3 99
f 99 3 26
f 99 3 54
f 54 3 99
f 99 54 50
f 50 54 99
f 50 81 99
f 99 81 50
f 106 39 1
f 1 39 106
f 106 4 26
f 26 4 106
f 1 4 106
f 106 4 1
f 113 39 106
f 106 39 113
f 26 99 106
f 106 99 26
f 106 99 113
f 113 99 106
f 110 91 120
f 120 91 110
f 120 15 110
f 110 15 120