g Mesh

v -0.0007217153906822205 0.0524899959564209 -0.040732890367507935
v 0.06714926660060883 -0.014930427074432373 -0.032138556241989136
v -0.02314465492963791 0.04285892844200134 -0.0389656126499176
v -0.00916048139333725 0.050200432538986206 -0.04036042094230652
v 0.048929885029792786 0.014562144875526428 0.01960662007331848
v -0.01896696537733078 -0.004789888858795166 -0.04772725701332092
v 0.017601527273654938 -0.0071122050285339355 -0.04901483654975891
v 0.03995461016893387 -0.005442798137664795 0.031844884157180786
v 0.006318427622318268 -0.009218871593475342 -0.04899916052818298
v -0.03907322138547897 -0.032432228326797485 0.02578219771385193
v -0.02791183441877365 0.03245773911476135 0.07664850354194641
v -0.015237443149089813 0.05225139856338501 0.024933546781539917
v 0.06436197459697723 0.0034386664628982544 -0.022710531949996948
v 0.06689314544200897 -0.009237587451934814 -0.03122660517692566
v 0.0187554731965065 -0.03239518404006958 0.04657301306724548
v -0.0058178529143333435 -0.06347453594207764 0.012629002332687378
v 0.006431080400943756 0.00999438762664795 -0.04915317893028259
v 0.050671353936195374 0.01860526204109192 0.013823658227920532
v -0.012783639132976532 0.05226084589958191 0.02422437071800232
v 0.03802136331796646 -0.015954554080963135 0.029337078332901
v 0.011619903147220612 0.04686787724494934 -0.04664894938468933
v -0.0319441482424736 0.04972894489765167 0.030689090490341187
v 0.014087535440921783 0.0505368709564209 -0.010078400373458862
v -0.06082748621702194 0.04243731498718262 -0.011316269636154175
v -0.023343466222286224 0.027680814266204834 0.07510390877723694
v -0.014192886650562286 0.047381460666656494 -0.0427611768245697
v 0.03996936231851578 -0.0029276013374328613 0.031824737787246704
v 0.009826071560382843 -0.040620625019073486 0.04460260272026062
v -0.013373591005802155 -0.010657966136932373 -0.048200517892837524
v 0.03178689628839493 0.01730993390083313 -0.04865345358848572
v 0.0051009878516197205 -0.07193058729171753 -0.008268505334854126
v 0.011002011597156525 0.05052420496940613 -0.031680911779403687
v 0.018005751073360443 0.04883323609828949 0.016958087682724
v 0.048499271273612976 -0.027868568897247314 0.002258986234664917
v 0.04951535165309906 0.016757115721702576 0.017672210931777954
v -0.00039824098348617554 0.053074970841407776 -0.03350481390953064
v 0.009690769016742706 -0.05162304639816284 0.02745470404624939
v -0.0416143462061882 0.04954136908054352 0.002216130495071411
v 0.002050168812274933 0.049235790967941284 -0.04793885350227356
v -0.00868978351354599 0.0534600168466568 -0.025878816843032837
v -0.03068672865629196 0.006297066807746887 0.061639100313186646
v -0.01831679791212082 -0.06353479623794556 0.004778534173965454
v -0.059630386531353 -0.029734134674072266 0.004760712385177612
v -0.012418977916240692 -0.06563764810562134 0.005058616399765015
v -0.06932472437620163 -0.02971893548965454 -0.007023423910140991
v 0.04940469563007355 -0.03843796253204346 -0.020214229822158813
v 0.027518443763256073 0.043863892555236816 0.020671457052230835
v -0.005374781787395477 0.05169576406478882 0.043937891721725464
v 0.0044915154576301575 -0.06319734454154968 0.010702520608901978
v -0.08166377991437912 -0.021417051553726196 -0.017655104398727417
v -0.07083173841238022 -0.023989558219909668 -0.004235595464706421
v -0.0060877129435539246 0.053470030426979065 -0.02663084864616394
v 0.04010208696126938 0.019709110260009766 0.03164324164390564
v -0.08163940161466599 -0.01868194341659546 -0.0175342857837677
v 0.04131794720888138 -0.011589616537094116 0.02709326148033142
v 0.05837945640087128 -0.028620123863220215 -0.021979421377182007
v 0.04352261871099472 0.03028424084186554 0.020036250352859497
v -0.025359980762004852 -0.03483384847640991 0.035250335931777954
v -0.012609176337718964 0.05319476127624512 -0.027883857488632202
v 0.05107487738132477 -0.010227084159851074 0.012138038873672485
v 0.04891486465930939 0.012000367045402527 0.01962718367576599
v 0.011995173990726471 -0.06586915254592896 -0.003309696912765503
v -0.017825238406658173 0.05108848214149475 0.04125794768333435
v -0.013309679925441742 0.00024116039276123047 -0.04828789830207825
v 0.018733687698841095 -0.03483515977859497 0.0464651882648468
v 0.06490688025951385 -0.002377748489379883 -0.024578958749771118
v -0.0646364614367485 0.03515690565109253 -0.00221899151802063
v 1.490861177444458e-05 -0.06297704577445984 0.013049513101577759
v -0.01062699407339096 0.05158230662345886 0.04440942406654358
v 0.014866732060909271 0.01785995066165924 -0.048973530530929565
v 0.01218528300523758 -0.04061150550842285 0.04392072558403015
v 0.0025798603892326355 -0.07192140817642212 -0.008965104818344116
v 0.012459225952625275 -0.07223057746887207 -0.01660779118537903
v -0.02628641575574875 0.041395217180252075 0.07034429907798767
v 0.01638711243867874 -0.03484418988227844 0.04714342951774597
v 0.03429204970598221 0.03907358646392822 0.0246640145778656
v 0.014081798493862152 0.05083300173282623 0.011704713106155396
v -0.05543925613164902 -0.019467979669570923 0.017575174570083618
v -0.02092709392309189 -0.06875818967819214 -0.006173223257064819
v -0.02607857435941696 0.03714311122894287 0.07529547810554504
v 0.04096809774637222 0.024209335446357727 0.02872660756111145
v 0.066877081990242 -0.011978983879089355 -0.031204670667648315
v -0.03637043386697769 -0.005421429872512817 -0.042154163122177124
v -0.0039153024554252625 0.05339500308036804 -0.028304606676101685
v 0.019276924431324005 0.04470527172088623 -0.04271236062049866
v -0.037160031497478485 0.005027845501899719 0.05511555075645447
v -0.01076257973909378 -0.013392329216003418 -0.047452837228775024
v -0.002987198531627655 0.05170494318008423 0.04324778914451599
v 0.02747447043657303 0.03664463758468628 -0.04441806674003601
v 0.06492282450199127 0.00034040212631225586 -0.024600714445114136
v -0.05002351850271225 -0.029657810926437378 0.01657441258430481
v -0.027890436351299286 0.03485506772994995 0.07675442099571228
v -0.0255848690867424 0.034863948822021484 0.07608810067176819
v -0.03216352313756943 -0.03315052390098572 0.0331285297870636
v 0.06633259356021881 -0.006096065044403076 -0.029336780309677124
v 0.039419956505298615 0.033828720450401306 0.02509370446205139
v 0.021879859268665314 0.04198354482650757 -0.0435924232006073
v -0.02715497463941574 0.04509201645851135 0.059306055307388306
v -0.014756493270397186 -0.035852283239364624 0.03943052887916565
v 0.051629677414894104 -0.013255417346954346 0.010245472192764282
v -0.036354683339595795 -0.0027365684509277344 -0.04217568039894104
v -0.023961924016475677 0.04140418767929077 0.06967243552207947
v 0.04008734971284866 0.017193928360939026 0.0316634476184845
v -0.021969906985759735 0.03704273700714111 0.073060542345047
v 0.03181130439043045 0.020045042037963867 -0.048532634973526
v 5.8747828006744385e-05 -0.07191219925880432 -0.009661644697189331
v -0.026722364127635956 0.022601604461669922 0.07375958561897278
v -0.0006086453795433044 0.04922553896903992 -0.047170430421829224
v -0.04041241854429245 0.05054575204849243 -0.01788303256034851
v -0.033804409205913544 0.00042617321014404297 0.056014031171798706
v -0.025649063289165497 0.02767196297645569 0.0757702887058258
v -0.023322097957134247 0.030078142881393433 0.07520988583564758
v 0.03479357808828354 0.03992711007595062 0.013381749391555786
v 0.024482734501361847 0.039261817932128906 -0.04447242617607117
v -0.004849039018154144 0.029872164130210876 -0.0483110249042511
v -0.027358107268810272 -0.06420251727104187 -0.007226377725601196
v 0.04183068126440048 -0.026878952980041504 0.015969663858413696
v -0.028289727866649628 0.01977434754371643 0.07095447182655334
v -0.03984396904706955 0.04450255632400513 0.03168728947639465
v 0.037750937044620514 0.03229391574859619 0.030872434377670288
v 0.0024750307202339172 -0.06296759843826294 0.012338489294052124
v -0.023279301822185516 0.03487280011177063 0.07542172074317932
v -0.03423585742712021 0.05046924948692322 0.010545998811721802
v -0.010157160460948944 0.045260488986968994 0.055440276861190796
v 0.001603744924068451 -0.0774686336517334 -0.028893858194351196
v 0.01123792678117752 -0.03507530689239502 0.04757973551750183
f 109 26 24
f 24 26 109
f 2 125 7
f 7 125 2
f 7 30 2
f 2 30 7
f 1 32 21
f 21 32 1
f 24 26 3
f 3 26 24
f 101 3 26
f 26 3 101
f 125 73 31
f 31 73 125
f 63 12 123
f 123 12 63
f 123 12 109
f 109 12 123
f 74 67 92
f 92 67 74
f 46 65 73
f 73 65 46
f 46 125 2
f 2 125 46
f 46 73 125
f 125 73 46
f 50 86 11
f 11 86 50
f 110 91 94
f 94 91 110
f 86 78 110
f 110 78 86
f 78 91 110
f 110 91 78
f 9 7 125
f 125 7 9
f 17 7 9
f 9 7 17
f 89 113 13
f 13 113 89
f 39 1 21
f 21 1 39
f 17 115 39
f 39 115 17
f 59 1 109
f 109 1 59
f 109 12 59
f 59 12 109
f 26 109 4
f 4 109 26
f 109 1 4
f 4 1 109
f 32 1 36
f 36 1 32
f 57 18 13
f 13 18 57
f 13 113 57
f 57 113 13
f 57 120 18
f 18 120 57
f 76 113 47
f 47 113 76
f 32 36 23
f 23 36 32
f 23 36 77
f 77 36 23
f 77 47 23
f 23 47 77
f 23 47 113
f 113 47 23
f 24 3 54
f 54 3 24
f 54 67 24
f 24 67 54
f 54 101 50
f 50 101 54
f 3 101 54
f 54 101 3
f 92 67 54
f 54 67 92
f 50 11 54
f 54 11 50
f 54 11 92
f 92 11 54
f 50 101 83
f 83 101 50
f 83 125 50
f 50 125 83
f 29 125 83
f 83 125 29
f 64 115 17
f 17 115 64
f 64 9 29
f 29 9 64
f 17 9 64
f 64 9 17
f 69 12 63
f 63 12 69
f 63 98 69
f 69 98 63
f 98 74 69
f 69 74 98
f 24 67 119
f 119 67 24
f 67 74 119
f 119 74 67
f 119 74 98
f 98 74 119
f 22 98 63
f 63 98 22
f 63 123 22
f 22 123 63
f 22 119 98
f 98 119 22
f 24 119 22
f 22 119 24
f 15 112 65
f 65 112 15
f 51 91 78
f 78 91 51
f 51 86 50
f 50 86 51
f 51 78 86
f 86 78 51
f 94 91 10
f 10 91 94
f 118 11 86
f 86 11 118
f 86 110 118
f 118 110 86
f 112 11 111
f 111 11 112
f 87 125 29
f 29 125 87
f 29 9 87
f 87 9 29
f 87 9 125
f 125 9 87
f 8 15 65
f 65 15 8
f 65 46 34
f 34 46 65
f 66 90 13
f 13 90 66
f 2 14 82
f 82 14 2
f 82 66 2
f 2 66 82
f 90 66 82
f 82 66 90
f 13 90 95
f 95 90 13
f 95 89 13
f 13 89 95
f 14 89 95
f 95 89 14
f 95 82 14
f 14 82 95
f 90 82 95
f 95 82 90
f 105 89 14
f 14 89 105
f 2 30 105
f 105 30 2
f 105 14 2
f 2 14 105
f 21 89 105
f 105 89 21
f 105 39 21
f 21 39 105
f 30 39 105
f 105 39 30
f 113 89 85
f 85 89 113
f 32 23 85
f 85 23 32
f 85 23 113
f 113 23 85
f 21 32 85
f 85 32 21
f 1 39 108
f 108 39 1
f 26 4 108
f 108 4 26
f 108 4 1
f 1 4 108
f 108 39 115
f 115 39 108
f 108 101 26
f 26 101 108
f 108 115 101
f 101 115 108
f 70 39 30
f 30 39 70
f 17 39 70
f 70 39 17
f 30 7 70
f 70 7 30
f 70 7 17
f 17 7 70
f 40 59 12
f 12 59 40
f 1 59 40
f 40 59 1
f 77 36 84
f 84 36 77
f 84 36 1
f 1 36 84
f 84 40 52
f 52 40 84
f 1 40 84
f 84 40 1
f 96 113 76
f 76 113 96
f 96 57 113
f 113 57 96
f 76 120 96
f 96 120 76
f 120 57 96
f 96 57 120
f 101 115 6
f 6 115 101
f 115 64 6
f 6 64 115
f 6 83 101
f 101 83 6
f 29 83 6
f 6 83 29
f 6 64 29
f 29 64 6
f 49 31 73
f 73 31 49
f 65 28 71
f 71 28 65
f 71 37 65
f 65 37 71
f 52 40 19
f 19 40 52
f 19 40 12
f 12 40 19
f 33 47 77
f 77 47 33
f 76 47 88
f 88 47 76
f 47 33 88
f 88 33 47
f 88 120 76
f 76 120 88
f 88 33 77
f 77 33 88
f 77 84 88
f 88 84 77
f 88 84 52
f 52 84 88
f 52 19 88
f 88 19 52
f 38 123 109
f 109 123 38
f 38 22 123
f 123 22 38
f 38 109 24
f 24 109 38
f 24 22 38
f 38 22 24
f 58 99 41
f 41 99 58
f 58 110 94
f 94 110 58
f 41 110 58
f 58 110 41
f 91 51 45
f 45 51 91
f 45 51 50
f 50 51 45
f 125 106 79
f 79 106 125
f 94 10 79
f 79 10 94
f 65 112 25
f 25 112 65
f 112 111 25
f 25 111 112
f 55 8 65
f 65 8 55
f 100 8 55
f 55 8 100
f 117 100 65
f 65 100 117
f 65 34 117
f 117 34 65
f 117 34 100
f 100 34 117
f 56 46 2
f 2 46 56
f 56 34 46
f 46 34 56
f 2 100 56
f 56 100 2
f 100 34 56
f 56 34 100
f 103 5 53
f 53 5 103
f 18 120 35
f 35 120 18
f 120 5 35
f 35 5 120
f 13 18 35
f 35 18 13
f 35 5 13
f 13 5 35
f 61 27 8
f 8 27 61
f 61 66 13
f 13 66 61
f 13 5 61
f 61 5 13
f 61 5 103
f 103 5 61
f 103 27 61
f 61 27 103
f 80 74 92
f 92 74 80
f 114 89 21
f 21 89 114
f 62 49 73
f 73 49 62
f 37 49 62
f 62 49 37
f 73 65 62
f 62 65 73
f 65 37 62
f 62 37 65
f 121 49 37
f 37 49 121
f 37 71 121
f 121 71 37
f 68 31 121
f 121 31 68
f 31 49 121
f 121 49 31
f 121 28 68
f 68 28 121
f 121 71 28
f 28 71 121
f 124 104 120
f 120 104 124
f 120 88 124
f 124 88 120
f 124 88 104
f 104 88 124
f 48 69 74
f 74 69 48
f 12 69 48
f 48 69 12
f 48 19 12
f 12 19 48
f 48 88 19
f 19 88 48
f 94 79 42
f 42 79 94
f 31 79 72
f 72 79 31
f 72 79 106
f 106 79 72
f 125 31 72
f 72 31 125
f 72 106 125
f 125 106 72
f 50 125 116
f 116 125 50
f 125 79 116
f 116 79 125
f 116 45 50
f 50 45 116
f 91 45 43
f 43 45 91
f 43 10 91
f 91 10 43
f 43 79 10
f 10 79 43
f 45 116 43
f 43 116 45
f 43 116 79
f 79 116 43
f 111 126 75
f 75 126 111
f 65 25 75
f 75 25 65
f 75 25 111
f 111 25 75
f 75 28 65
f 65 28 75
f 75 126 28
f 28 126 75
f 28 126 107
f 107 126 28
f 107 126 111
f 111 126 107
f 11 118 107
f 107 118 11
f 107 111 11
f 11 111 107
f 41 99 107
f 107 99 41
f 107 99 28
f 28 99 107
f 107 110 41
f 41 110 107
f 107 118 110
f 110 118 107
f 65 100 20
f 20 100 65
f 20 55 65
f 65 55 20
f 100 55 20
f 20 55 100
f 81 5 120
f 120 5 81
f 120 53 81
f 81 53 120
f 81 53 5
f 5 53 81
f 60 8 100
f 100 8 60
f 60 61 8
f 8 61 60
f 66 61 60
f 60 61 66
f 60 100 2
f 2 100 60
f 2 66 60
f 60 66 2
f 74 80 102
f 102 80 74
f 102 80 104
f 104 80 102
f 104 88 102
f 102 88 104
f 102 48 74
f 74 48 102
f 88 48 102
f 102 48 88
f 97 85 89
f 89 85 97
f 89 114 97
f 97 114 89
f 21 85 97
f 97 85 21
f 97 114 21
f 21 114 97
f 16 58 94
f 94 58 16
f 94 42 16
f 16 42 94
f 99 58 16
f 16 58 99
f 28 99 16
f 16 99 28
f 68 28 16
f 16 28 68
f 16 31 68
f 68 31 16
f 104 80 122
f 122 80 104
f 120 104 122
f 122 104 120
f 122 53 120
f 120 53 122
f 103 53 122
f 122 53 103
f 122 27 103
f 103 27 122
f 15 8 122
f 122 8 15
f 8 27 122
f 122 27 8
f 44 42 79
f 79 42 44
f 44 16 42
f 42 16 44
f 44 79 31
f 31 79 44
f 31 16 44
f 44 16 31
f 93 80 92
f 92 80 93
f 93 122 80
f 80 122 93
f 93 11 112
f 112 11 93
f 92 11 93
f 93 11 92
f 112 122 93
f 93 122 112
f 112 15 122
f 122 15 112
f 24 26 109
f 109 26 24
f 7 125 2
f 2 125 7
f 2 30 7
f 7 30 2
f 21 32 1
f 1 32 21
f 3 26 24
f 24 26 3
f 26 3 101
f 101 3 26
f 31 73 125
f 125 73 31
f 123 12 63
f 63 12 123
f 109 12 123
f 123 12 109
f 92 67 74
f 74 67 92
f 73 65 46
f 46 65 73
f 2 125 46
f 46 125 2
f 125 73 46
f 46 73 125
f 11 86 50
f 50 86 11
f 94 91 110
f 110 91 94
f 110 78 86
f 86 78 110
f 110 91 78
f 78 91 110
f 125 7 9
f 9 7 125
f 9 7 17
f 17 7 9
f 13 113 89
f 89 113 13
f 21 1 39
f 39 1 21
f 39 115 17
f 17 115 39
f 109 1 59
f 59 1 109
f 59 12 109
f 109 12 59
f 4 109 26
f 26 109 4
f 4 1 109
f 109 1 4
f 36 1 32
f 32 1 36
f 13 18 57
f 57 18 13
f 57 113 13
f 13 113 57
f 18 120 57
f 57 120 18
f 47 113 76
f 76 113 47
f 23 36 32
f 32 36 23
f 77 36 23
f 23 36 77
f 23 47 77
f 77 47 23
f 113 47 23
f 23 47 113
f 54 3 24
f 24 3 54
f 24 67 54
f 54 67 24
f 50 101 54
f 54 101 50
f 54 101 3
f 3 101 54
f 54 67 92
f 92 67 54
f 54 11 50
f 50 11 54
f 92 11 54
f 54 11 92
f 83 101 50
f 50 101 83
f 50 125 83
f 83 125 50
f 83 125 29
f 29 125 83
f 17 115 64
f 64 115 17
f 29 9 64
f 64 9 29
f 64 9 17
f 17 9 64
f 63 12 69
f 69 12 63
f 69 98 63
f 63 98 69
f 69 74 98
f 98 74 69
f 119 67 24
f 24 67 119
f 119 74 67
f 67 74 119
f 98 74 119
f 119 74 98
f 63 98 22
f 22 98 63
f 22 123 63
f 63 123 22
f 98 119 22
f 22 119 98
f 22 119 24
f 24 119 22
f 65 112 15
f 15 112 65
f 78 91 51
f 51 91 78
f 50 86 51
f 51 86 50
f 86 78 51
f 51 78 86
f 10 91 94
f 94 91 10
f 86 11 118
f 118 11 86
f 118 110 86
f 86 110 118
f 111 11 112
f 112 11 111
f 29 125 87
f 87 125 29
f 87 9 29
f 29 9 87
f 125 9 87
f 87 9 125
f 65 15 8
f 8 15 65
f 34 46 65
f 65 46 34
f 13 90 66
f 66 90 13
f 82 14 2
f 2 14 82
f 2 66 82
f 82 66 2
f 82 66 90
f 90 66 82
f 95 90 13
f 13 90 95
f 13 89 95
f 95 89 13
f 95 89 14
f 14 89 95
f 14 82 95
f 95 82 14
f 95 82 90
f 90 82 95
f 14 89 105
f 105 89 14
f 105 30 2
f 2 30 105
f 2 14 105
f 105 14 2
f 105 89 21
f 21 89 105
f 21 39 105
f 105 39 21
f 105 39 30
f 30 39 105
f 85 89 113
f 113 89 85
f 85 23 32
f 32 23 85
f 113 23 85
f 85 23 113
f 85 32 21
f 21 32 85
f 108 39 1
f 1 39 108
f 108 4 26
f 26 4 108
f 1 4 108
f 108 4 1
f 115 39 108
f 108 39 115
f 26 101 108
f 108 101 26
f 101 115 108
f 108 115 101
f 30 39 70
f 70 39 30
f 70 39 17
f 17 39 70
f 70 7 30
f 30 7 70
f 17 7 70
f 70 7 17
f 12 59 40
f 40 59 12
f 40 59 1
f 1 59 40
f 84 36 77
f 77 36 84
f 1 36 84
f 84 36 1
f 52 40 84
f 84 40 52
f 84 40 1
f 1 40 84
f 76 113 96
f 96 113 76
f 113 57 96
f 96 57 113
f 96 120 76
f 76 120 96
f 96 57 120
f 120 57 96
f 6 115 101
f 101 115 6
f 6 64 115
f 115 64 6
f 101 83 6
f 6 83 101
f 6 83 29
f 29 83 6
f 29 64 6
f 6 64 29
f 73 31 49
f 49 31 73
f 71 28 65
f 65 28 71
f 65 37 71
f 71 37 65
f 19 40 52
f 52 40 19
f 12 40 19
f 19 40 12
f 77 47 33
f 33 47 77
f 88 47 76
f 76 47 88
f 88 33 47
f 47 33 88
f 76 120 88
f 88 120 76
f 77 33 88
f 88 33 77
f 88 84 77
f 77 84 88
f 52 84 88
f 88 84 52
f 88 19 52
f 52 19 88
f 109 123 38
f 38 123 109
f 123 22 38
f 38 22 123
f 24 109 38
f 38 109 24
f 38 22 24
f 24 22 38
f 41 99 58
f 58 99 41
f 94 110 58
f 58 110 94
f 58 110 41
f 41 110 58
f 45 51 91
f 91 51 45
f 50 51 45
f 45 51 50
f 79 106 125
f 125 106 79
f 79 10 94
f 94 10 79
f 25 112 65
f 65 112 25
f 25 111 112
f 112 111 25
f 65 8 55
f 55 8 65
f 55 8 100
f 100 8 55
f 65 100 117
f 117 100 65
f 117 34 65
f 65 34 117
f 100 34 117
f 117 34 100
f 2 46 56
f 56 46 2
f 46 34 56
f 56 34 46
f 56 100 2
f 2 100 56
f 56 34 100
f 100 34 56
f 53 5 103
f 103 5 53
f 35 120 18
f 18 120 35
f 35 5 120
f 120 5 35
f 35 18 13
f 13 18 35
f 13 5 35
f 35 5 13
f 8 27 61
f 61 27 8
f 13 66 61
f 61 66 13
f 61 5 13
f 13 5 61
f 103 5 61
f 61 5 103
f 61 27 103
f 103 27 61
f 92 74 80
f 80 74 92
f 21 89 114
f 114 89 21
f 73 49 62
f 62 49 73
f 62 49 37
f 37 49 62
f 62 65 73
f 73 65 62
f 62 37 65
f 65 37 62
f 37 49 121
f 121 49 37
f 121 71 37
f 37 71 121
f 121 31 68
f 68 31 121
f 121 49 31
f 31 49 121
f 68 28 121
f 121 28 68
f 28 71 121
f 121 71 28
f 120 104 124
f 124 104 120
f 124 88 120
f 120 88 124
f 104 88 124
f 124 88 104
f 74 69 48
f 48 69 74
f 48 69 12
f 12 69 48
f 12 19 48
f 48 19 12
f 19 88 48
f 48 88 19
f 42 79 94
f 94 79 42
f 72 79 31
f 31 79 72
f 106 79 72
f 72 79 106
f 72 31 125
f 125 31 72
f 125 106 72
f 72 106 125
f 116 125 50
f 50 125 116
f 116 79 125
f 125 79 116
f 50 45 116
f 116 45 50
f 43 45 91
f 91 45 43
f 91 10 43
f 43 10 91
f 10 79 43
f 43 79 10
f 43 116 45
f 45 116 43
f 79 116 43
f 43 116 79
f 75 126 111
f 111 126 75
f 75 25 65
f 65 25 75
f 111 25 75
f 75 25 111
f 65 28 75
f 75 28 65
f 28 126 75
f 75 126 28
f 107 126 28
f 28 126 107
f 111 126 107
f 107 126 111
f 107 118 11
f 11 118 107
f 11 111 107
f 107 111 11
f 107 99 41
f 41 99 107
f 28 99 107
f 107 99 28
f 41 110 107
f 107 110 41
f 110 118 107
f 107 118 110
f 20 100 65
f 65 100 20
f 65 55 20
f 20 55 65
f 20 55 100
f 100 55 20
f 120 5 81
f 81 5 120
f 81 53 120
f 120 53 81
f 5 53 81
f 81 53 5
f 100 8 60
f 60 8 100
f 8 61 60
f 60 61 8
f 60 61 66
f 66 61 60
f 2 100 60
f 60 100 2
f 60 66 2
f 2 66 60
f 102 80 74
f 74 80 102
f 104 80 102
f 102 80 104
f 102 88 104
f 104 88 102
f 74 48 102
f 102 48 74
f 102 48 88
f 88 48 102
f 89 85 97
f 97 85 89
f 97 114 89
f 89 114 97
f 97 85 21
f 21 85 97
f 21 114 97
f 97 114 21
f 94 58 16
f 16 58 94
f 16 42 94
f 94 42 16
f 16 58 99
f 99 58 16
f 16 99 28
f 28 99 16
f 16 28 68
f 68 28 16
f 68 31 16
f 16 31 68
f 122 80 104
f 104 80 122
f 122 104 120
f 120 104 122
f 120 53 122
f 122 53 120
f 122 53 103
f 103 53 122
f 103 27 122
f 122 27 103
f 122 8 15
f 15 8 122
f 122 27 8
f 8 27 122
f 79 42 44
f 44 42 79
f 42 16 44
f 44 16 42
f 31 79 44
f 44 79 31
f 44 16 31
f 31 16 44
f 92 80 93
f 93 80 92
f 80 122 93
f 93 122 80
f 112 11 93
f 93 11 112
f 93 11 92
f 92 11 93
f 93 122 112
f 112 122 93
f 122 15 112
f 112 15 122