g Mesh

v 0.05248943343758583 0.0007217079401016235 -0.04073263704776764
v -0.014930997043848038 -0.06714928150177002 -0.03213830292224884
v 0.04285835102200508 0.023144647479057312 -0.03896535933017731
v 0.05019986256957054 0.009160473942756653 -0.04036016762256622
v 0.014561574906110764 -0.048929885029792786 0.019606873393058777
v -0.0047904737293720245 0.018966957926750183 -0.04772700369358063
v -0.0071127749979496 -0.017601534724235535 -0.049014583230018616
v -0.00544336810708046 -0.039954617619514465 0.03184513747692108
v -0.0092194564640522 -0.006318435072898865 -0.04899890720844269
v -0.03243279829621315 0.039073213934898376 0.025782451033592224
v 0.03245716169476509 0.027911826968193054 0.0766487568616867
v 0.052250828593969345 0.015237435698509216 0.024933800101280212
v 0.0034380964934825897 -0.06436198949813843 -0.022710278630256653
v -0.009238142520189285 -0.06689316034317017 -0.031226351857185364
v -0.03239576891064644 -0.018755480647087097 0.04657326638698578
v -0.0634751170873642 0.005817845463752747 0.012629255652427673
v 0.009993817657232285 -0.006431087851524353 -0.0491529256105423
v 0.018604692071676254 -0.05067136883735657 0.013823911547660828
v 0.05226026847958565 0.012783631682395935 0.024224624037742615
v -0.015955138951539993 -0.03802137076854706 0.029337331652641296
v 0.04686729982495308 -0.011619910597801208 -0.046648696064949036
v 0.04972837492823601 0.031944140791893005 0.030689343810081482
v 0.050536300987005234 -0.01408754289150238 -0.010078147053718567
v 0.04243675246834755 0.060827478766441345 -0.01131601631641388
v 0.027680251747369766 0.023343458771705627 0.07510416209697723
v 0.04738089069724083 0.01419287919998169 -0.04276092350482941
v -0.002928171306848526 -0.039969369769096375 0.031824991106987
v -0.04062118008732796 -0.00982607901096344 0.044602856040000916
v -0.010658551007509232 0.013373583555221558 -0.04820026457309723
v 0.017309363931417465 -0.031786903738975525 -0.04865320026874542
v -0.07193116843700409 -0.005100995302200317 -0.00826825201511383
v 0.05052363499999046 -0.011002019047737122 -0.03168065845966339
v 0.048832666128873825 -0.01800575852394104 0.016958341002464294
v -0.027869153767824173 -0.04849928617477417 0.0022592395544052124
v 0.01675654575228691 -0.049515366554260254 0.01767246425151825
v 0.05307440087199211 0.0003982335329055786 -0.033504560589790344
v -0.051623616367578506 -0.009690776467323303 0.027454957365989685
v 0.04954079911112785 0.041614338755607605 0.0022163838148117065
v 0.04923521354794502 -0.00205017626285553 -0.047938600182533264
v 0.053459446877241135 0.008689776062965393 -0.02587856352329254
v 0.0062964968383312225 0.030686721205711365 0.06163935363292694
v -0.06353537738323212 0.018316790461540222 0.0047787874937057495
v -0.029734689742326736 0.0596303790807724 0.004760965704917908
v -0.0656382143497467 0.012418970465660095 0.00505886971950531
v -0.0297195203602314 0.06932471692562103 -0.007023170590400696
v -0.03843853250145912 -0.04940469563007355 -0.020213976502418518
v 0.043863315135240555 -0.02751845121383667 0.02067171037197113
v 0.05169518664479256 0.00537477433681488 0.04393814504146576
v -0.06319791078567505 -0.004491522908210754 0.010702773928642273
v -0.02141762152314186 0.08166377246379852 -0.01765485107898712
v -0.02399011328816414 0.07083173096179962 -0.0042353421449661255
v 0.0534694604575634 0.006087705492973328 -0.026630595326423645
v 0.0197085402905941 -0.040102094411849976 0.031643494963645935
v -0.018682513386011124 0.08163939416408539 -0.017534032464027405
v -0.011590186506509781 -0.041317954659461975 0.027093514800071716
v -0.02862069383263588 -0.05837945640087128 -0.02197916805744171
v 0.030283670872449875 -0.04352262616157532 0.020036503672599792
v -0.03483441844582558 0.025359973311424255 0.03525058925151825
v 0.05319419130682945 0.012609168887138367 -0.027883604168891907
v -0.010227654129266739 -0.05107487738132477 0.01213829219341278
v 0.011999797075986862 -0.04891486465930939 0.019627436995506287
v -0.06586973369121552 -0.011995181441307068 -0.0033094435930252075
v 0.05108790472149849 0.017825230956077576 0.041258201003074646
v 0.00024060532450675964 0.013309672474861145 -0.04828764498233795
v -0.034835729748010635 -0.018733695149421692 0.0464654415845871
v -0.0023783035576343536 -0.06490688025951385 -0.024578705430030823
v 0.03515632823109627 0.06463645398616791 -0.0022187381982803345
v -0.0629776120185852 -1.4916062355041504e-05 0.013049766421318054
v 0.051581744104623795 0.010626986622810364 0.044409677386283875
v 0.017859380692243576 -0.014866739511489868 -0.04897327721118927
v -0.04061209037899971 -0.012185290455818176 0.04392097890377045
v -0.07223114371299744 -0.012459233403205872 -0.016607537865638733
v 0.04139465466141701 0.026286408305168152 0.07034455239772797
v -0.03484475985169411 -0.01638711988925934 0.04714368283748627
v 0.03907301649451256 -0.034292057156562805 0.024664267897605896
v 0.05083243176341057 -0.014081805944442749 0.011704966425895691
v -0.019468549638986588 0.05543924868106842 0.017575427889823914
v -0.06875874102115631 0.02092708647251129 -0.006172969937324524
v 0.03714253380894661 0.026078566908836365 0.07529573142528534
v 0.024208765476942062 -0.04096810519695282 0.028726860880851746
v -0.005421999841928482 0.036370426416397095 -0.04215390980243683
v 0.05339443311095238 0.0039152950048446655 -0.02830435335636139
v 0.044704701751470566 -0.019276931881904602 -0.04271210730075836
v 0.0050272755324840546 0.03716002404689789 0.05511580407619476
v -0.013392914086580276 0.010762572288513184 -0.04745258390903473
v 0.05170438066124916 0.002987191081047058 0.04324804246425629
v 0.03664407506585121 -0.027474477887153625 -0.044417813420295715
v 0.0003398321568965912 -0.06492282450199127 -0.02460046112537384
v -0.029658380895853043 0.05002351105213165 0.016574665904045105
v 0.03485449030995369 0.02789042890071869 0.07675467431545258
v 0.03486337140202522 0.025584861636161804 0.07608835399150848
v -0.03315109387040138 0.03216351568698883 0.033128783106803894
v -0.006096635013818741 -0.06633259356021881 -0.02933652698993683
v 0.03382815048098564 -0.03941996395587921 0.025093957781791687
v 0.0419829823076725 -0.02187986671924591 -0.043592169880867004
v 0.04509143903851509 0.027154967188835144 0.0593063086271286
v -0.03585285320878029 0.01475648581981659 0.039430782198905945
v -0.01325598731637001 -0.0516296923160553 0.010245725512504578
v -0.002737138420343399 0.0363546758890152 -0.042175427079200745
v 0.04140361025929451 0.02396191656589508 0.06967268884181976
v 0.01719335839152336 -0.04008735716342926 0.03166370093822479
v 0.037042174488306046 0.021969899535179138 0.07306079566478729
v 0.020044472068548203 -0.03181131184101105 -0.048532381653785706
v -0.07191276550292969 -5.875527858734131e-05 -0.009661391377449036
v 0.022601034492254257 0.02672235667705536 0.07375983893871307
v 0.04922497645020485 0.0006086379289627075 -0.04717017710208893
v 0.050545189529657364 0.04041241109371185 -0.017882779240608215
v 0.0004256032407283783 0.03380440175533295 0.056014284491539
v 0.027671385556459427 0.0256490558385849 0.0757705420255661
v 0.030077580362558365 0.02332209050655365 0.07521013915538788
v 0.03992654010653496 -0.034793585538864136 0.013382002711296082
v 0.03926124796271324 -0.024482741951942444 -0.04447217285633087
v 0.029871594160795212 0.004849031567573547 -0.0483107715845108
v -0.06420308351516724 0.027358099818229675 -0.007226124405860901
v -0.026879508048295975 -0.04183068871498108 0.01596991717815399
v 0.019773777574300766 0.02828972041606903 0.07095472514629364
v 0.04450198635458946 0.03984396159648895 0.03168754279613495
v 0.03229334577918053 -0.03775094449520111 0.030872687697410583
v -0.06296814978122711 -0.002475038170814514 0.01233874261379242
v 0.03487223759293556 0.02327929437160492 0.07542197406291962
v 0.05046868696808815 0.03423584997653961 0.010546252131462097
v 0.04525991156697273 0.010157153010368347 0.05544053018093109
v -0.07746919989585876 -0.0016037523746490479 -0.0288936048746109
v -0.035075876861810684 -0.011237934231758118 0.047579988837242126
f 123 7 2
f 2 7 123
f 90 67 54
f 54 67 90
f 54 67 24
f 24 67 54
f 123 29 85
f 85 29 123
f 114 50 123
f 123 50 114
f 123 78 114
f 114 78 123
f 50 84 11
f 11 84 50
f 11 54 50
f 50 54 11
f 90 54 11
f 11 54 90
f 108 89 92
f 92 89 108
f 78 44 42
f 42 44 78
f 52 1 40
f 40 1 52
f 24 22 38
f 38 22 24
f 117 22 24
f 24 22 117
f 117 96 22
f 22 96 117
f 24 67 117
f 117 67 24
f 24 26 3
f 3 26 24
f 3 54 24
f 24 54 3
f 36 32 1
f 1 32 36
f 1 4 107
f 107 4 1
f 24 38 107
f 107 38 24
f 107 26 24
f 24 26 107
f 107 4 26
f 26 4 107
f 50 114 45
f 45 114 50
f 84 108 116
f 116 108 84
f 116 108 105
f 105 108 116
f 116 11 84
f 84 11 116
f 105 11 116
f 116 11 105
f 92 42 16
f 16 42 92
f 16 42 44
f 44 42 16
f 105 108 41
f 41 108 105
f 78 42 10
f 10 42 78
f 10 114 78
f 78 114 10
f 92 89 10
f 10 89 92
f 10 42 92
f 92 42 10
f 73 67 90
f 90 67 73
f 73 117 67
f 67 117 73
f 96 117 73
f 73 117 96
f 96 73 69
f 69 73 96
f 52 40 12
f 12 40 52
f 54 3 99
f 99 3 54
f 50 54 99
f 99 54 50
f 99 3 26
f 26 3 99
f 99 113 6
f 6 113 99
f 52 86 82
f 82 86 52
f 82 1 52
f 52 1 82
f 82 36 1
f 1 36 82
f 76 82 86
f 86 82 76
f 36 82 76
f 76 82 36
f 121 38 22
f 22 38 121
f 121 107 38
f 38 107 121
f 121 12 107
f 107 12 121
f 39 113 106
f 106 113 39
f 1 39 106
f 106 39 1
f 106 99 26
f 26 99 106
f 113 99 106
f 106 99 113
f 106 4 1
f 1 4 106
f 26 4 106
f 106 4 26
f 64 29 6
f 6 29 64
f 6 113 64
f 64 113 6
f 30 2 7
f 7 2 30
f 30 103 2
f 2 103 30
f 39 103 30
f 30 103 39
f 2 103 14
f 14 103 2
f 104 78 123
f 123 78 104
f 43 45 114
f 114 45 43
f 89 45 43
f 43 45 89
f 114 10 43
f 43 10 114
f 43 10 89
f 89 10 43
f 77 108 84
f 84 108 77
f 89 108 77
f 77 108 89
f 97 16 28
f 28 16 97
f 97 28 105
f 105 28 97
f 105 41 97
f 97 41 105
f 90 11 91
f 91 11 90
f 98 56 2
f 2 56 98
f 22 96 63
f 63 96 22
f 96 69 63
f 63 69 96
f 69 12 63
f 63 12 69
f 63 121 22
f 22 121 63
f 12 121 63
f 63 121 12
f 48 69 73
f 73 69 48
f 86 12 48
f 48 12 86
f 48 12 69
f 69 12 48
f 19 86 52
f 52 86 19
f 52 12 19
f 19 12 52
f 19 12 86
f 86 12 19
f 59 12 40
f 40 12 59
f 107 12 59
f 59 12 107
f 59 40 1
f 1 40 59
f 1 107 59
f 59 107 1
f 50 99 81
f 81 99 50
f 123 50 81
f 81 50 123
f 81 29 123
f 123 29 81
f 6 29 81
f 81 29 6
f 81 99 6
f 6 99 81
f 32 36 23
f 23 36 32
f 36 76 23
f 23 76 36
f 47 86 75
f 75 86 47
f 75 111 47
f 47 111 75
f 111 23 47
f 47 23 111
f 47 23 76
f 76 23 47
f 17 64 113
f 113 64 17
f 17 113 39
f 39 113 17
f 13 66 88
f 88 66 13
f 88 66 2
f 2 66 88
f 2 14 88
f 88 14 2
f 87 14 103
f 103 14 87
f 87 111 13
f 13 111 87
f 32 23 83
f 83 23 32
f 83 23 111
f 111 23 83
f 111 87 83
f 83 87 111
f 83 87 95
f 95 87 83
f 72 49 31
f 31 49 72
f 123 72 31
f 31 72 123
f 31 104 123
f 123 104 31
f 31 16 44
f 44 16 31
f 78 104 31
f 31 104 78
f 31 44 78
f 78 44 31
f 51 45 89
f 89 45 51
f 89 77 51
f 51 77 89
f 50 45 51
f 51 45 50
f 51 84 50
f 50 84 51
f 51 77 84
f 84 77 51
f 92 16 58
f 58 16 92
f 16 97 58
f 58 97 16
f 58 97 41
f 41 97 58
f 58 108 92
f 92 108 58
f 58 41 108
f 108 41 58
f 46 65 72
f 72 65 46
f 46 72 123
f 123 72 46
f 123 2 46
f 46 2 123
f 2 56 46
f 46 56 2
f 15 65 8
f 8 65 15
f 105 28 124
f 124 28 105
f 110 91 11
f 11 91 110
f 25 65 110
f 110 65 25
f 65 15 110
f 110 15 65
f 102 122 86
f 86 122 102
f 13 111 57
f 57 111 13
f 61 66 13
f 13 66 61
f 56 98 34
f 34 98 56
f 34 46 56
f 56 46 34
f 65 46 34
f 34 46 65
f 8 65 55
f 55 65 8
f 55 98 8
f 8 98 55
f 33 76 86
f 86 76 33
f 86 47 33
f 33 47 86
f 33 47 76
f 76 47 33
f 70 30 7
f 7 30 70
f 7 17 70
f 70 17 7
f 39 30 70
f 70 30 39
f 70 17 39
f 39 17 70
f 13 88 93
f 93 88 13
f 93 88 14
f 14 88 93
f 93 87 13
f 13 87 93
f 14 87 93
f 93 87 14
f 95 87 112
f 112 87 95
f 16 31 68
f 68 31 16
f 28 16 68
f 68 16 28
f 71 37 65
f 65 37 71
f 72 65 62
f 62 65 72
f 62 49 72
f 72 49 62
f 62 37 49
f 49 37 62
f 65 37 62
f 62 37 65
f 74 124 28
f 28 124 74
f 28 71 74
f 74 71 28
f 74 71 65
f 65 71 74
f 74 65 25
f 25 65 74
f 79 73 90
f 90 73 79
f 90 91 79
f 79 91 90
f 91 110 120
f 120 110 91
f 120 15 8
f 8 15 120
f 120 110 15
f 15 110 120
f 120 79 91
f 91 79 120
f 102 79 120
f 120 79 102
f 13 57 18
f 18 57 13
f 8 98 60
f 60 98 8
f 60 61 8
f 8 61 60
f 66 61 60
f 60 61 66
f 2 66 60
f 60 66 2
f 60 98 2
f 2 98 60
f 115 98 65
f 65 98 115
f 65 34 115
f 115 34 65
f 115 34 98
f 98 34 115
f 65 98 20
f 20 98 65
f 20 55 65
f 65 55 20
f 98 55 20
f 20 55 98
f 64 17 9
f 9 17 64
f 29 64 9
f 9 64 29
f 9 17 7
f 7 17 9
f 9 85 29
f 29 85 9
f 9 7 123
f 123 7 9
f 123 85 9
f 9 85 123
f 95 112 21
f 21 112 95
f 21 83 95
f 95 83 21
f 21 39 1
f 1 39 21
f 21 103 39
f 39 103 21
f 1 32 21
f 21 32 1
f 32 83 21
f 21 83 32
f 21 87 103
f 103 87 21
f 21 112 87
f 87 112 21
f 119 31 49
f 49 31 119
f 119 68 31
f 31 68 119
f 49 37 119
f 119 37 49
f 37 71 119
f 119 71 37
f 28 68 119
f 119 68 28
f 119 71 28
f 28 71 119
f 109 74 25
f 25 74 109
f 109 11 105
f 105 11 109
f 105 124 109
f 109 124 105
f 124 74 109
f 109 74 124
f 109 110 11
f 11 110 109
f 25 110 109
f 109 110 25
f 118 18 57
f 57 18 118
f 118 53 80
f 80 53 118
f 120 53 118
f 118 53 120
f 102 120 118
f 118 120 102
f 122 102 118
f 118 102 122
f 75 86 118
f 118 86 75
f 86 122 118
f 118 122 86
f 73 79 100
f 100 79 73
f 100 79 102
f 102 79 100
f 100 102 86
f 86 102 100
f 86 48 100
f 100 48 86
f 100 48 73
f 73 48 100
f 5 61 13
f 13 61 5
f 80 53 5
f 5 53 80
f 5 118 80
f 80 118 5
f 101 53 120
f 120 53 101
f 61 5 101
f 101 5 61
f 101 5 53
f 53 5 101
f 94 118 57
f 57 118 94
f 75 118 94
f 94 118 75
f 94 111 75
f 75 111 94
f 94 57 111
f 111 57 94
f 13 18 35
f 35 18 13
f 35 5 13
f 13 5 35
f 18 118 35
f 35 118 18
f 118 5 35
f 35 5 118
f 8 61 27
f 27 61 8
f 61 101 27
f 27 101 61
f 27 120 8
f 8 120 27
f 27 101 120
f 120 101 27
f 2 7 123
f 123 7 2
f 54 67 90
f 90 67 54
f 24 67 54
f 54 67 24
f 85 29 123
f 123 29 85
f 123 50 114
f 114 50 123
f 114 78 123
f 123 78 114
f 11 84 50
f 50 84 11
f 50 54 11
f 11 54 50
f 11 54 90
f 90 54 11
f 92 89 108
f 108 89 92
f 42 44 78
f 78 44 42
f 40 1 52
f 52 1 40
f 38 22 24
f 24 22 38
f 24 22 117
f 117 22 24
f 22 96 117
f 117 96 22
f 117 67 24
f 24 67 117
f 3 26 24
f 24 26 3
f 24 54 3
f 3 54 24
f 1 32 36
f 36 32 1
f 107 4 1
f 1 4 107
f 107 38 24
f 24 38 107
f 24 26 107
f 107 26 24
f 26 4 107
f 107 4 26
f 45 114 50
f 50 114 45
f 116 108 84
f 84 108 116
f 105 108 116
f 116 108 105
f 84 11 116
f 116 11 84
f 116 11 105
f 105 11 116
f 16 42 92
f 92 42 16
f 44 42 16
f 16 42 44
f 41 108 105
f 105 108 41
f 10 42 78
f 78 42 10
f 78 114 10
f 10 114 78
f 10 89 92
f 92 89 10
f 92 42 10
f 10 42 92
f 90 67 73
f 73 67 90
f 67 117 73
f 73 117 67
f 73 117 96
f 96 117 73
f 69 73 96
f 96 73 69
f 12 40 52
f 52 40 12
f 99 3 54
f 54 3 99
f 99 54 50
f 50 54 99
f 26 3 99
f 99 3 26
f 6 113 99
f 99 113 6
f 82 86 52
f 52 86 82
f 52 1 82
f 82 1 52
f 1 36 82
f 82 36 1
f 86 82 76
f 76 82 86
f 76 82 36
f 36 82 76
f 22 38 121
f 121 38 22
f 38 107 121
f 121 107 38
f 107 12 121
f 121 12 107
f 106 113 39
f 39 113 106
f 106 39 1
f 1 39 106
f 26 99 106
f 106 99 26
f 106 99 113
f 113 99 106
f 1 4 106
f 106 4 1
f 106 4 26
f 26 4 106
f 6 29 64
f 64 29 6
f 64 113 6
f 6 113 64
f 7 2 30
f 30 2 7
f 2 103 30
f 30 103 2
f 30 103 39
f 39 103 30
f 14 103 2
f 2 103 14
f 123 78 104
f 104 78 123
f 114 45 43
f 43 45 114
f 43 45 89
f 89 45 43
f 43 10 114
f 114 10 43
f 89 10 43
f 43 10 89
f 84 108 77
f 77 108 84
f 77 108 89
f 89 108 77
f 28 16 97
f 97 16 28
f 105 28 97
f 97 28 105
f 97 41 105
f 105 41 97
f 91 11 90
f 90 11 91
f 2 56 98
f 98 56 2
f 63 96 22
f 22 96 63
f 63 69 96
f 96 69 63
f 63 12 69
f 69 12 63
f 22 121 63
f 63 121 22
f 63 121 12
f 12 121 63
f 73 69 48
f 48 69 73
f 48 12 86
f 86 12 48
f 69 12 48
f 48 12 69
f 52 86 19
f 19 86 52
f 19 12 52
f 52 12 19
f 86 12 19
f 19 12 86
f 40 12 59
f 59 12 40
f 59 12 107
f 107 12 59
f 1 40 59
f 59 40 1
f 59 107 1
f 1 107 59
f 81 99 50
f 50 99 81
f 81 50 123
f 123 50 81
f 123 29 81
f 81 29 123
f 81 29 6
f 6 29 81
f 6 99 81
f 81 99 6
f 23 36 32
f 32 36 23
f 23 76 36
f 36 76 23
f 75 86 47
f 47 86 75
f 47 111 75
f 75 111 47
f 47 23 111
f 111 23 47
f 76 23 47
f 47 23 76
f 113 64 17
f 17 64 113
f 39 113 17
f 17 113 39
f 88 66 13
f 13 66 88
f 2 66 88
f 88 66 2
f 88 14 2
f 2 14 88
f 103 14 87
f 87 14 103
f 13 111 87
f 87 111 13
f 83 23 32
f 32 23 83
f 111 23 83
f 83 23 111
f 83 87 111
f 111 87 83
f 95 87 83
f 83 87 95
f 31 49 72
f 72 49 31
f 31 72 123
f 123 72 31
f 123 104 31
f 31 104 123
f 44 16 31
f 31 16 44
f 31 104 78
f 78 104 31
f 78 44 31
f 31 44 78
f 89 45 51
f 51 45 89
f 51 77 89
f 89 77 51
f 51 45 50
f 50 45 51
f 50 84 51
f 51 84 50
f 84 77 51
f 51 77 84
f 58 16 92
f 92 16 58
f 58 97 16
f 16 97 58
f 41 97 58
f 58 97 41
f 92 108 58
f 58 108 92
f 108 41 58
f 58 41 108
f 72 65 46
f 46 65 72
f 123 72 46
f 46 72 123
f 46 2 123
f 123 2 46
f 46 56 2
f 2 56 46
f 8 65 15
f 15 65 8
f 124 28 105
f 105 28 124
f 11 91 110
f 110 91 11
f 110 65 25
f 25 65 110
f 110 15 65
f 65 15 110
f 86 122 102
f 102 122 86
f 57 111 13
f 13 111 57
f 13 66 61
f 61 66 13
f 34 98 56
f 56 98 34
f 56 46 34
f 34 46 56
f 34 46 65
f 65 46 34
f 55 65 8
f 8 65 55
f 8 98 55
f 55 98 8
f 86 76 33
f 33 76 86
f 33 47 86
f 86 47 33
f 76 47 33
f 33 47 76
f 7 30 70
f 70 30 7
f 70 17 7
f 7 17 70
f 70 30 39
f 39 30 70
f 39 17 70
f 70 17 39
f 93 88 13
f 13 88 93
f 14 88 93
f 93 88 14
f 13 87 93
f 93 87 13
f 93 87 14
f 14 87 93
f 112 87 95
f 95 87 112
f 68 31 16
f 16 31 68
f 68 16 28
f 28 16 68
f 65 37 71
f 71 37 65
f 62 65 72
f 72 65 62
f 72 49 62
f 62 49 72
f 49 37 62
f 62 37 49
f 62 37 65
f 65 37 62
f 28 124 74
f 74 124 28
f 74 71 28
f 28 71 74
f 65 71 74
f 74 71 65
f 25 65 74
f 74 65 25
f 90 73 79
f 79 73 90
f 79 91 90
f 90 91 79
f 120 110 91
f 91 110 120
f 8 15 120
f 120 15 8
f 15 110 120
f 120 110 15
f 91 79 120
f 120 79 91
f 120 79 102
f 102 79 120
f 18 57 13
f 13 57 18
f 60 98 8
f 8 98 60
f 8 61 60
f 60 61 8
f 60 61 66
f 66 61 60
f 60 66 2
f 2 66 60
f 2 98 60
f 60 98 2
f 65 98 115
f 115 98 65
f 115 34 65
f 65 34 115
f 98 34 115
f 115 34 98
f 20 98 65
f 65 98 20
f 65 55 20
f 20 55 65
f 20 55 98
f 98 55 20
f 9 17 64
f 64 17 9
f 9 64 29
f 29 64 9
f 7 17 9
f 9 17 7
f 29 85 9
f 9 85 29
f 123 7 9
f 9 7 123
f 9 85 123
f 123 85 9
f 21 112 95
f 95 112 21
f 95 83 21
f 21 83 95
f 1 39 21
f 21 39 1
f 39 103 21
f 21 103 39
f 21 32 1
f 1 32 21
f 21 83 32
f 32 83 21
f 103 87 21
f 21 87 103
f 87 112 21
f 21 112 87
f 49 31 119
f 119 31 49
f 31 68 119
f 119 68 31
f 119 37 49
f 49 37 119
f 119 71 37
f 37 71 119
f 119 68 28
f 28 68 119
f 28 71 119
f 119 71 28
f 25 74 109
f 109 74 25
f 105 11 109
f 109 11 105
f 109 124 105
f 105 124 109
f 109 74 124
f 124 74 109
f 11 110 109
f 109 110 11
f 109 110 25
f 25 110 109
f 57 18 118
f 118 18 57
f 80 53 118
f 118 53 80
f 118 53 120
f 120 53 118
f 118 120 102
f 102 120 118
f 118 102 122
f 122 102 118
f 118 86 75
f 75 86 118
f 118 122 86
f 86 122 118
f 100 79 73
f 73 79 100
f 102 79 100
f 100 79 102
f 86 102 100
f 100 102 86
f 100 48 86
f 86 48 100
f 73 48 100
f 100 48 73
f 13 61 5
f 5 61 13
f 5 53 80
f 80 53 5
f 80 118 5
f 5 118 80
f 120 53 101
f 101 53 120
f 101 5 61
f 61 5 101
f 53 5 101
f 101 5 53
f 57 118 94
f 94 118 57
f 94 118 75
f 75 118 94
f 75 111 94
f 94 111 75
f 111 57 94
f 94 57 111
f 35 18 13
f 13 18 35
f 13 5 35
f 35 5 13
f 35 118 18
f 18 118 35
f 35 5 118
f 118 5 35
f 27 61 8
f 8 61 27
f 27 101 61
f 61 101 27
f 8 120 27
f 27 120 8
f 120 101 27
f 27 101 120